<svg xmlns="http://www.w3.org/2000/svg" viewBox="0 0 214.005 203.18" x="0px" y="0px"><path d="M125.146,147.52q-14.44-15-14.432-41.508,0-57.718,77.741-106.012l5.3,8.231q-54.78,35.928-54.773,71.854c0,.287.045.523.045.8a45.148,45.148,0,0,1,64.277,63.074c-.537.706-1.246,1.35-1.83,2.026-.283.3-.542.6-.831.887a42.618,42.618,0,0,1-3.362,3.591q-13.539,12.082-35.632,12.081T125.146,147.52Zm-110.718-.006Q0,132.514,0,106,0,48.3,77.735,0l5.307,8.235C47.278,31.7,29.152,55.154,28.411,78.6a44.986,44.986,0,0,1,71.683,42.354c0,.137.023.231.023.36q0,17.068-13.546,29.145T50.94,162.53Q28.857,162.53,14.428,147.514Z" fill="#003777"/></svg>