<svg class="picture" xmlns="http://www.w3.org/2000/svg" width="1050.651" height="957.156" viewBox="0 0 1050.651 957.156">
  <defs>
    <radialGradient id="radial-gradient" cx="795.024" cy="27.237" gradientTransform="translate(68.06 -2.134) scale(0.911 0.911)" gradientUnits="userSpaceOnUse">
      <stop offset="0" stop-color="#03d59f" stop-opacity="0"></stop>
      <stop offset="1" stop-color="#03d59f"></stop>
    </radialGradient>
  </defs>
  <path id="Path_751" d="M1049.675,449.08c-30.256-53.492-74.739-96.853-122.132-135.212C884.013,278.634,843.98,263.1,815.9,210.049c-18.826-35.548-32.718-74.136-57.388-105.907C706.591,37.291,616.076,45.537,542.632,65.5,347.7,118.5,176.536,253.694,79.843,431.057,54.853,476.89,34.393,526.4,30.741,578.482S42.132,685.734,79.6,722.085c46.615,45.225,117.208,53.781,173.346,86.454,57,33.171,96.166,89.309,144.306,134.39s116.346,80.8,178.5,58.754C628.065,983.12,658.6,930.426,698.02,891.35,760.3,829.616,846.97,800.9,924.085,759.143s152.4-109.066,156.594-196.661C1082.582,522.812,1069.233,483.647,1049.675,449.08Z" transform="translate(-30.208 -51.222)" opacity="0.4" fill="url(#radial-gradient)"></path>
</svg>